<?xml version="1.0" encoding="utf-8"?>
<!-- Generator: Adobe Illustrator 26.5.0, SVG Export Plug-In . SVG Version: 6.00 Build 0)  -->
<svg version="1.1" id="Layer_1" xmlns="http://www.w3.org/2000/svg" xmlns:xlink="http://www.w3.org/1999/xlink" x="0px" y="0px"
	 viewBox="0 0 406 120.1" style="enable-background:new 0 0 406 120.1;" xml:space="preserve">
<style type="text/css">
	.st0{fill:#FFFFFF;}
	.st1{fill:none;}
</style>
<path class="st0" d="M0,56.7c4.3,4.4,8.7,7.1,16.3,7.1c7,0,16.6-5.1,16.6-14.4c0-8.5-7.6-12.2-14-14.5c-4.3-1.5-6.5-2.6-6.5-5
	c0-2,2.6-3.4,4.8-3.4c3,0,6.1,1.2,8.3,3.4l7.2-7.8c-4.3-4-9.1-6.4-15.5-6.4C10.7,15.7,2,20.8,2,30.3c0,8.1,7.1,12.4,13.4,14.5
	c4,1.3,6.3,2.4,6.3,4.9c0,1.8-2.8,3.4-5.5,3.4c-3.7,0-6.3-1.4-8.9-3.7L0,56.7z M112.6,62.9V35.4c0-12.5-5.9-19.6-17.5-19.6
	c-8.3,0-13.5,4.7-15.4,7.1h-0.2c-2.4-4.3-7.1-7.1-13-7.1c-6.6,0-11,3.1-13.1,5.3h-0.2v-4.3H42.3v46.3h11.1V36.1
	c0-4.9,3.3-9.7,9.7-9.7c5.6,0,8.8,4.3,8.8,9.7v26.8H83V35.7c0-4.7,3.4-9.3,9.7-9.3c5.6,0,8.8,4.3,8.8,9.7v26.8H112.6z M166.5,62.9
	V16.7h-11.1v4.2h-0.2c-3.8-3.1-8.3-5.1-13.7-5.1c-13.4,0-23.1,10.7-23.1,24.1c0,13.3,9.7,24.1,23.1,24.1c5.4,0,9.9-1.9,13.7-5h0.2
	v4.1H166.5z M142.4,53.2c-7.6,0-13-5.6-13-13.4c0-7.8,5.4-13.4,13-13.4s12.9,5.6,12.9,13.4C155.3,47.6,150,53.2,142.4,53.2
	 M184.3,62.9V38.5c0-4.9,3.1-11.7,11.1-11.7h3.2V15.7c-7.7,0-12.1,2.9-14.2,5.7h-0.2v-4.8h-11.1v46.3H184.3z M222.5,62.9V26.4h10.2
	v-9.7h-10.2V0h-11.1v16.7h-8.3v9.7h8.3v36.6H222.5z M249,84.2V58.9h0.2c3.8,3.1,8.3,5,13.7,5c13.4,0,23.1-10.7,23.1-24.1
	c0-13.3-9.7-24.1-23.1-24.1c-5.4,0-9.9,1.9-13.7,5.1H249v-4.2h-11.1v67.6H249z M262,53.2c-7.6,0-12.9-5.6-12.9-13.4
	c0-7.8,5.3-13.4,12.9-13.4c7.6,0,13,5.6,13,13.4C275,47.6,269.6,53.2,262,53.2 M314.1,53.2c-7.6,0-13-5.6-13-13.4
	c0-7.8,5.4-13.4,13-13.4c7.6,0,13,5.6,13,13.4C327.1,47.6,321.7,53.2,314.1,53.2 M314.1,63.9c13.4,0,24.1-10.7,24.1-24.1
	c0-13.3-10.6-24.1-24.1-24.1c-13.4,0-24.1,10.7-24.1,24.1C290,53.1,300.7,63.9,314.1,63.9 M339.7,56.7c4.4,4.4,8.7,7.1,16.3,7.1
	c7,0,16.6-5.1,16.6-14.4c0-8.5-7.6-12.2-14-14.5c-4.3-1.5-6.5-2.6-6.5-5c0-2,2.6-3.4,4.8-3.4c3,0,6.1,1.2,8.3,3.4l7.2-7.8
	c-4.3-4-9.1-6.4-15.5-6.4s-15.2,5.1-15.2,14.5c0,8.1,7.1,12.4,13.4,14.5c4,1.3,6.3,2.4,6.3,4.9c0,1.8-2.8,3.4-5.5,3.4
	c-3.7,0-6.3-1.4-8.9-3.7L339.7,56.7z M395.8,62.9V26.4H406v-9.7h-10.2V0h-11.1v16.7h-8.3v9.7h8.3v36.6H395.8z"/>
<path class="st0" d="M308,93.7c1.8,0,3.4-1.5,3.4-3.4S309.8,87,308,87s-3.4,1.5-3.4,3.4S306.2,93.7,308,93.7 M310.7,97.3h-5.4v22.4
	h5.4V97.3z M322.8,119.7V102h4.9v-4.7h-4.9v-8.1h-5.4v8.1h-4v4.7h4v17.7H322.8z M350.6,110.8c0,0,0.1-1.4,0.1-2.6
	c0-6-4.3-11.4-10.4-11.4c-7.1,0-11.3,5.6-11.3,11.6c0,6.4,4.6,11.6,11.2,11.6c3.9,0,7.1-1.5,9.2-3.7l-3.8-3.4c-1.2,1.2-3,2-5.4,2
	c-2.7,0-4.8-2-5.4-4.2H350.6z M334.7,106.2c0.5-2.5,2.4-4.3,5.1-4.3c2.7,0,4.7,1.9,4.9,4.3H334.7z M359.1,86.5h-5.4v33.1h5.4V86.5z
	 M368.7,86.5h-5.4v33.1h5.4V86.5z M395.8,119.7V97.3h-5.4v2h-0.1c-1.8-1.5-4-2.5-6.6-2.5c-6.5,0-11.2,5.2-11.2,11.6
	s4.7,11.6,11.2,11.6c2.6,0,4.8-0.9,6.6-2.4h0.1v2H395.8z M384.2,115c-3.7,0-6.3-2.7-6.3-6.5c0-3.8,2.6-6.5,6.3-6.5
	c3.7,0,6.2,2.7,6.2,6.5C390.4,112.2,387.8,115,384.2,115"/>
<rect x="10.2" y="342.8" class="st1" width="406" height="120.1"/>
</svg>
